<svg version="1.1" xmlns="http://www.w3.org/2000/svg" style="display: block;" viewBox="0 0 2048 2048" width="1024" height="1024" preserveAspectRatio="none">
<defs>
	<linearGradient id="Gradient1" gradientUnits="userSpaceOnUse" x1="1417.19" y1="636.454" x2="1445.82" y2="584.345">
		<stop class="stop0" offset="0" stop-opacity="1" stop-color="rgb(0,0,0)"/>
		<stop class="stop1" offset="1" stop-opacity="1" stop-color="rgb(28,9,6)"/>
	</linearGradient>
	<linearGradient id="Gradient2" gradientUnits="userSpaceOnUse" x1="1492.55" y1="715.662" x2="1394.45" y2="676.181">
		<stop class="stop0" offset="0" stop-opacity="1" stop-color="rgb(199,67,0)"/>
		<stop class="stop1" offset="1" stop-opacity="1" stop-color="rgb(153,42,1)"/>
	</linearGradient>
	<linearGradient id="Gradient3" gradientUnits="userSpaceOnUse" x1="1651.87" y1="1190.59" x2="1581.44" y2="1255.11">
		<stop class="stop0" offset="0" stop-opacity="1" stop-color="rgb(255,128,8)"/>
		<stop class="stop1" offset="1" stop-opacity="1" stop-color="rgb(207,105,70)"/>
	</linearGradient>
	<linearGradient id="Gradient4" gradientUnits="userSpaceOnUse" x1="1573.76" y1="1044.62" x2="1695.8" y2="997.175">
		<stop class="stop0" offset="0" stop-opacity="1" stop-color="rgb(250,139,25)"/>
		<stop class="stop1" offset="1" stop-opacity="1" stop-color="rgb(254,215,60)"/>
	</linearGradient>
	<linearGradient id="Gradient5" gradientUnits="userSpaceOnUse" x1="476.068" y1="1050.71" x2="347.389" y2="1000.13">
		<stop class="stop0" offset="0" stop-opacity="1" stop-color="rgb(250,137,24)"/>
		<stop class="stop1" offset="1" stop-opacity="1" stop-color="rgb(252,215,59)"/>
	</linearGradient>
	<linearGradient id="Gradient6" gradientUnits="userSpaceOnUse" x1="1028.61" y1="658.258" x2="1023.15" y2="436.398">
		<stop class="stop0" offset="0" stop-opacity="1" stop-color="rgb(249,146,19)"/>
		<stop class="stop1" offset="1" stop-opacity="1" stop-color="rgb(251,210,63)"/>
	</linearGradient>
</defs>
<path transform="translate(0,0)" fill="rgb(0,0,0)" d="M 534.91 401.178 C 561.982 413.69 609.031 426.083 632.313 442.176 C 693.445 472.347 750.136 513.155 803.379 555.567 C 834.043 579.993 861.877 610.419 891.659 635.555 C 898.461 635.063 904.72 633.519 911.276 631.76 C 946.086 622.42 981.775 619.293 1017.72 620.098 C 1044.62 620.649 1072 618.161 1098.67 622.962 C 1118.08 626.15 1136.22 631.957 1155.24 635.852 L 1156.71 634.643 C 1171.62 622.261 1187.54 604.37 1203.29 590.469 C 1251.53 547.307 1303.42 508.399 1358.37 474.181 C 1371.54 466 1402.51 447.898 1416.66 442.052 C 1442.75 429.442 1484.65 408.85 1513.23 404.774 C 1516.37 404.326 1540.58 464.125 1543.16 471.211 C 1566.8 536.165 1580.03 598.692 1579.52 667.867 C 1579.18 715.05 1580.43 750.967 1572.55 798.596 C 1571.14 807.64 1569.39 816.628 1567.3 825.538 C 1548.67 901.692 1549.14 862.609 1589.62 929.207 C 1600.17 946.681 1608.69 964.997 1617.04 983.593 C 1621.01 992.433 1624.62 1003.15 1629.73 1011.26 C 1636.12 1021.39 1717.91 1070.12 1733.14 1080.47 C 1724.64 1100.43 1685.15 1168.32 1669.28 1182.02 C 1666.53 1187.23 1652.25 1201.72 1646.78 1210.02 C 1637.19 1226.74 1625.56 1263.63 1613.83 1280.2 C 1604.89 1301.77 1581.69 1334.42 1568.22 1353.2 C 1502.93 1444.24 1411.87 1517.55 1314.55 1572.06 C 1283.5 1589.45 1250.74 1607.01 1217.55 1620.79 C 1216.77 1621.12 1215.98 1621.43 1215.18 1621.73 C 1199.64 1630.28 1179.58 1637.57 1162.97 1644.94 L 1028.24 1703.52 C 1023.22 1704.57 1021.67 1704.17 1017.69 1701.6 C 1003.87 1697.13 984.603 1688.4 970.925 1682.64 C 940.648 1670.19 910.592 1657.2 880.771 1643.69 C 865.571 1636.94 849.261 1628.71 834.118 1622.73 C 833.245 1622.42 831.651 1621.88 830.871 1621.52 C 796.441 1605.85 762.606 1588.95 729.99 1569.85 C 706.918 1556.34 685.401 1543.98 663.308 1528.93 C 593.826 1481.6 532.517 1423.27 481.789 1356.23 C 468.453 1338.53 442.832 1300.3 434.156 1280.24 C 427.119 1271.18 405.293 1221.91 399.596 1208.57 L 399.224 1207.89 C 392.54 1197.68 381.731 1187.73 374.048 1178.4 C 356.568 1157.19 320.922 1104.44 313.494 1079.15 C 330.001 1067.84 409.508 1022.57 416.239 1012.64 C 421.517 1004.86 424.905 994.117 428.933 985.507 C 436.313 969.351 444.563 953.605 453.644 938.34 C 465.495 914.201 477.625 898.904 493.888 878.08 C 476.956 814.901 463.611 760.525 466.875 694.191 C 468.256 666.146 466.005 636.778 470.321 608.395 C 480.708 540.088 500.321 461.565 534.91 401.178 z"/>
<path transform="translate(0,0)" fill="url(#Gradient6)" d="M 1155.24 635.852 L 1156.71 634.643 C 1171.62 622.261 1187.54 604.37 1203.29 590.469 C 1251.53 547.307 1303.42 508.399 1358.37 474.181 C 1371.54 466 1402.51 447.898 1416.66 442.052 C 1417.05 454.911 1414.03 464.78 1409.84 476.819 C 1384.14 492.277 1359.55 505.483 1333.68 521.975 C 1272.09 561.6 1214.53 607.168 1161.83 658.027 C 1072.46 628.417 975.921 628.461 886.58 658.152 C 820.701 597.533 753.521 542.98 675.658 498.284 C 662.971 491.001 649.909 484.07 637.594 476.219 C 633.209 464.549 630.082 454.811 632.313 442.176 C 693.445 472.347 750.136 513.155 803.379 555.567 C 834.043 579.993 861.877 610.419 891.659 635.555 C 898.461 635.063 904.72 633.519 911.276 631.76 C 946.086 622.42 981.775 619.293 1017.72 620.098 C 1044.62 620.649 1072 618.161 1098.67 622.962 C 1118.08 626.15 1136.22 631.957 1155.24 635.852 z"/>
<path transform="translate(0,0)" fill="rgb(190,62,1)" d="M 745.284 1424.48 C 833.334 1485.02 920.526 1546.79 1006.83 1609.78 C 1012.32 1613.41 1021.51 1621.6 1026.38 1621.11 L 1028.26 1619.81 C 1034.07 1613.23 1089.76 1574.1 1098.73 1567.69 L 1301.61 1424.61 C 1298.17 1482.66 1296.36 1505.28 1246.64 1539.33 C 1258.03 1508.97 1263.69 1493.56 1259.82 1461.31 C 1257.18 1468.85 1254.84 1477.2 1252.63 1484.89 L 1250.41 1484.53 C 1225.68 1505.64 1202.86 1524.84 1174.97 1541.95 C 1167.4 1546.6 1158.97 1553.69 1151.07 1557.4 C 1150.51 1560.33 1149.96 1563.26 1149.45 1566.2 C 1147.96 1566.36 1146.48 1567.17 1144.99 1567.78 L 1144.42 1568.45 L 1143.27 1566.49 C 1139.46 1567.54 1135.47 1571.17 1132.18 1573.6 C 1101.93 1595.86 1067.46 1609.62 1032.36 1621.92 C 1022.85 1624.57 1017.28 1622.62 1007.76 1620.56 C 970.631 1610.93 934.475 1587.29 903.934 1564.85 L 902.526 1565.28 C 900.706 1562.22 899.275 1556.85 898.116 1553.26 L 897.567 1553.69 L 898.021 1559.88 C 893.665 1553.03 845.518 1526.75 836.143 1518.3 C 833.265 1515.71 800.441 1491.54 797.596 1490.26 C 794.271 1481.03 791.019 1470.51 787.327 1461.61 C 784.686 1496.41 788.472 1508.48 803.348 1541.03 C 771.209 1518.86 755.732 1502.72 748.707 1463.57 C 746.505 1450.66 745.36 1437.58 745.284 1424.48 z"/>
<path transform="translate(0,0)" fill="rgb(43,0,1)" d="M 1144.99 1567.78 C 1146.46 1562.41 1147.75 1557.31 1149.82 1552.12 L 1150.64 1552.18 L 1151.07 1557.4 C 1150.51 1560.33 1149.96 1563.26 1149.45 1566.2 C 1147.96 1566.36 1146.48 1567.17 1144.99 1567.78 z"/>
<path transform="translate(0,0)" fill="rgb(245,121,14)" d="M 534.91 401.178 C 561.982 413.69 609.031 426.083 632.313 442.176 C 630.082 454.811 633.209 464.549 637.594 476.219 C 608.162 461.7 574.544 442.904 544.142 430.669 C 485.702 559.867 466.013 738.207 516.623 873.179 C 518.967 879.43 522.674 888.052 524.513 894.106 C 521.012 890.4 520.493 888.742 518.443 884 L 517.173 883.436 C 515.12 885.27 514.796 884.703 514.209 887.298 C 510.403 904.148 489.716 907.501 474.941 906.381 C 470.027 913.455 457.953 935.831 453.644 938.34 C 465.495 914.201 477.625 898.904 493.888 878.08 C 476.956 814.901 463.611 760.525 466.875 694.191 C 468.256 666.146 466.005 636.778 470.321 608.395 C 480.708 540.088 500.321 461.565 534.91 401.178 z"/>
<path transform="translate(0,0)" fill="rgb(245,121,14)" d="M 1416.66 442.052 C 1442.75 429.442 1484.65 408.85 1513.23 404.774 C 1516.37 404.326 1540.58 464.125 1543.16 471.211 C 1566.8 536.165 1580.03 598.692 1579.52 667.867 C 1579.18 715.05 1580.43 750.967 1572.55 798.596 C 1571.14 807.64 1569.39 816.628 1567.3 825.538 C 1548.67 901.692 1549.14 862.609 1589.62 929.207 C 1581.39 925.201 1569.19 898.559 1558.06 888.049 C 1546.26 885.836 1553.43 899.593 1529.13 882.451 C 1527.9 886.763 1526.73 888.393 1523.57 891.373 C 1527.63 881.486 1531.6 871.562 1535.48 861.602 C 1543.15 841.305 1549.78 810.388 1553.1 788.793 C 1571.24 670.667 1552.86 539.374 1503.83 430.612 C 1469.45 445.897 1442.98 460.127 1409.84 476.819 C 1414.03 464.78 1417.05 454.911 1416.66 442.052 z"/>
<path transform="translate(0,0)" fill="url(#Gradient5)" d="M 474.941 906.381 C 489.716 907.501 510.403 904.148 514.209 887.298 C 514.796 884.703 515.12 885.27 517.173 883.436 L 518.443 884 C 520.493 888.742 521.012 890.4 524.513 894.106 C 525.39 895.505 526.495 896.529 525.87 897.671 C 518.982 910.256 505.551 927.374 497.665 939.619 C 478.854 968.803 462.546 999.526 448.915 1031.46 C 437.241 1039.36 418.419 1049.14 405.705 1056.14 C 389.033 1065.32 371.611 1075.79 354.899 1084.49 C 372.663 1125.47 394.46 1164.57 419.968 1201.23 C 408.557 1207.77 405.273 1198.32 399.224 1207.89 C 392.54 1197.68 381.731 1187.73 374.048 1178.4 C 356.568 1157.19 320.922 1104.44 313.494 1079.15 C 330.001 1067.84 409.508 1022.57 416.239 1012.64 C 421.517 1004.86 424.905 994.117 428.933 985.507 C 436.313 969.351 444.563 953.605 453.644 938.34 C 457.953 935.831 470.027 913.455 474.941 906.381 z"/>
<path transform="translate(0,0)" fill="url(#Gradient4)" d="M 1523.57 891.373 C 1526.73 888.393 1527.9 886.763 1529.13 882.451 C 1553.43 899.593 1546.26 885.836 1558.06 888.049 C 1569.19 898.559 1581.39 925.201 1589.62 929.207 C 1600.17 946.681 1608.69 964.997 1617.04 983.593 C 1621.01 992.433 1624.62 1003.15 1629.73 1011.26 C 1636.12 1021.39 1717.91 1070.12 1733.14 1080.47 C 1724.64 1100.43 1685.15 1168.32 1669.28 1182.02 L 1667.34 1182.04 L 1661.88 1187.87 C 1654.58 1195.64 1645.02 1200.13 1634.63 1195.87 C 1635.55 1191.32 1640.36 1190.07 1640.65 1183.14 C 1643.4 1176.78 1656.01 1158.89 1660.16 1150.91 C 1671.53 1129.02 1683.08 1107.15 1693.59 1084.82 C 1663.09 1066.29 1630.62 1050.2 1599.82 1031.86 C 1585.37 999.163 1569.76 968.985 1550.24 938.89 C 1541.27 925.066 1529.93 912.323 1521.45 898.471 C 1521.19 894.717 1521.64 895.314 1523.57 891.373 z"/>
<path transform="translate(0,0)" fill="rgb(250,95,2)" d="M 902.526 1565.28 L 903.934 1564.85 C 934.475 1587.29 970.631 1610.93 1007.76 1620.56 C 1017.28 1622.62 1022.85 1624.57 1032.36 1621.92 C 1067.46 1609.62 1101.93 1595.86 1132.18 1573.6 C 1135.47 1571.17 1139.46 1567.54 1143.27 1566.49 L 1144.42 1568.45 C 1126.36 1614.58 1097.78 1644.05 1061.38 1676.32 C 1051.78 1684.84 1037.03 1695.13 1028.24 1703.52 C 1023.22 1704.57 1021.67 1704.17 1017.69 1701.6 C 1012.51 1696.34 1002.78 1689.47 996.814 1684.3 C 957.99 1650.74 919.193 1615.76 902.526 1565.28 z"/>
<path transform="translate(0,0)" fill="rgb(69,49,51)" d="M 1215.18 1621.73 C 1219.36 1613.91 1248.56 1599.48 1257.57 1594.18 C 1279.59 1580.98 1301.29 1567.25 1322.66 1553.01 C 1396.97 1502.84 1472.56 1438.79 1533.78 1372.47 C 1554.68 1349.82 1589.46 1305.34 1610.61 1280.68 C 1611.68 1280.52 1612.75 1280.36 1613.83 1280.2 C 1604.89 1301.77 1581.69 1334.42 1568.22 1353.2 C 1502.93 1444.24 1411.87 1517.55 1314.55 1572.06 C 1283.5 1589.45 1250.74 1607.01 1217.55 1620.79 C 1216.77 1621.12 1215.98 1621.43 1215.18 1621.73 z"/>
<path transform="translate(0,0)" fill="rgb(69,49,51)" d="M 434.156 1280.24 L 436.389 1279.78 C 447.016 1290.52 453.519 1300.91 462.766 1312.34 C 478.368 1331.78 494.561 1350.75 511.323 1369.2 C 588.298 1454.68 681.508 1527.86 779.22 1587.89 C 786.204 1592.18 832.759 1617.47 834.631 1621.1 L 834.118 1622.73 C 833.245 1622.42 831.651 1621.88 830.871 1621.52 C 796.441 1605.85 762.606 1588.95 729.99 1569.85 C 706.918 1556.34 685.401 1543.98 663.308 1528.93 C 593.826 1481.6 532.517 1423.27 481.789 1356.23 C 468.453 1338.53 442.832 1300.3 434.156 1280.24 z"/>
<path transform="translate(0,0)" fill="rgb(250,95,2)" d="M 1151.07 1557.4 C 1158.97 1553.69 1167.4 1546.6 1174.97 1541.95 C 1202.86 1524.84 1225.68 1505.64 1250.41 1484.53 L 1252.63 1484.89 C 1237.93 1539.76 1205.73 1575.22 1162.67 1610.25 C 1152.15 1618.81 1141.27 1627.85 1129.99 1635.4 C 1142.21 1608.95 1146.99 1596.03 1149.45 1566.2 C 1149.96 1563.26 1150.51 1560.33 1151.07 1557.4 z"/>
<path transform="translate(0,0)" fill="rgb(250,95,2)" d="M 797.596 1490.26 C 800.441 1491.54 833.265 1515.71 836.143 1518.3 C 845.518 1526.75 893.665 1553.03 898.021 1559.88 C 899.189 1591.89 905.789 1607.62 918.506 1635.84 C 865.991 1595.35 817.393 1557.09 797.596 1490.26 z"/>
<path transform="translate(0,0)" fill="url(#Gradient3)" d="M 1640.65 1183.14 C 1640.36 1190.07 1635.55 1191.32 1634.63 1195.87 C 1645.02 1200.13 1654.58 1195.64 1661.88 1187.87 L 1667.34 1182.04 L 1669.28 1182.02 C 1666.53 1187.23 1652.25 1201.72 1646.78 1210.02 C 1641.65 1213.8 1630.75 1223.56 1625.63 1228.06 C 1610.43 1241.41 1597.48 1252.01 1580.94 1263.66 C 1587.22 1254.56 1596.52 1243.8 1603.54 1234.56 C 1616.27 1217.68 1628.64 1200.54 1640.65 1183.14 z"/>
<path transform="translate(0,0)" fill="rgb(245,121,14)" d="M 419.968 1201.23 C 433.105 1220.61 454.1 1244.9 465.238 1262.82 C 436.234 1243.43 424.968 1229.95 399.596 1208.57 L 399.224 1207.89 C 405.273 1198.32 408.557 1207.77 419.968 1201.23 z"/>
<path transform="translate(0,0)" fill="rgb(250,95,2)" d="M 1471.52 493.701 C 1476.11 503.158 1480.06 523.243 1482.83 534.219 C 1501.54 608.182 1506.48 707.835 1493.9 783.429 L 1459.35 806.82 C 1450.82 813.264 1422.71 830.576 1413.07 835.756 L 1402.45 842.979 C 1404.31 823.669 1407.59 805.54 1409.32 784.941 C 1412.31 749.176 1414.56 709.893 1412.44 673.822 C 1412.32 671.769 1410.54 671.065 1408.97 670.407 C 1403.18 672.281 1325.22 754.777 1314.29 766.014 C 1315.87 761.502 1317.27 755.771 1318.55 751.077 L 1322.03 708.419 C 1313.44 727.276 1297.76 759.893 1283.51 775.15 C 1276.16 787.563 1259.81 806.716 1250.65 818.654 C 1234.52 839.773 1219.15 861.462 1204.56 883.678 L 1206.35 885.249 C 1246.05 836.174 1282.6 810.582 1347.69 808.629 C 1324.2 829.32 1306.33 855.917 1286.4 874.277 C 1293.23 871.955 1312.04 860.558 1317.98 863.407 C 1328.06 865.691 1339.31 870.704 1349.15 874.23 C 1366.83 880.562 1376.41 886.516 1394.9 878.523 C 1402.1 884.105 1420.07 901.033 1426.16 904.568 C 1432.39 907.969 1444.85 918.626 1450.62 923.47 C 1486.69 954.197 1520.6 987.372 1552.1 1022.76 C 1541.56 1022.98 1506.18 1023.37 1498.12 1027.09 C 1499 1027.61 1502.86 1029.81 1503.38 1030.31 C 1533.85 1044.54 1565.76 1062.94 1595.47 1078.89 C 1602.53 1082.67 1625.81 1095.2 1631.43 1099.51 C 1630.61 1100.73 1629.64 1102.3 1628.79 1103.45 C 1582.68 1156.27 1509.6 1224.43 1438.75 1239.01 C 1476.08 1249.8 1502.52 1255.08 1541.43 1246.97 C 1527.36 1256.71 1512.86 1269.82 1498.77 1280.43 C 1469.71 1301.98 1438.3 1320.17 1405.15 1334.67 C 1356.32 1356.17 1305.31 1367.49 1255.75 1386.48 C 1233.13 1395.15 1208.34 1408.79 1187.62 1421.43 C 1203.52 1405.23 1214.99 1395.74 1227.22 1375.79 C 1243.85 1348.67 1241.72 1321.22 1268.84 1301.54 C 1276.01 1296.33 1281.22 1293.45 1288.47 1288.77 C 1266.82 1292.14 1243.54 1292.17 1222.31 1284.56 C 1218.08 1283.04 1209.92 1276.85 1207.07 1275.97 C 1206.76 1280.29 1206.45 1284.22 1205.93 1288.53 C 1200.54 1333.75 1187.59 1378.72 1150.49 1407.91 C 1117.56 1433.82 1073.81 1434.84 1043.96 1404.44 L 1044.01 1384.39 C 1058.69 1380.08 1062.51 1377.48 1075.63 1369.49 C 1080.56 1365.57 1085.27 1361.38 1089.75 1356.94 C 1108.42 1338.66 1116.81 1318.43 1117.18 1292.6 C 1115.83 1290.87 1112.46 1287.53 1110.8 1285.8 C 1112.15 1282.18 1111.33 1266.49 1111.28 1261.75 L 1110.73 1203.62 C 1110.55 1193.25 1109.62 1175.98 1110.66 1166.5 C 1103.33 1163.98 1096.3 1162.17 1088.81 1160.18 C 1040.65 1148.8 1007.95 1148.22 959.599 1159.39 C 950.85 1161.46 944.504 1163.11 936.003 1165.94 L 935.849 1183.11 L 934.305 1185.97 L 932.598 1186.28 L 930.522 1183.87 C 904.906 1154.02 876.628 1152.34 840.614 1142.55 C 825.305 1138.33 810.403 1132.74 796.083 1125.87 C 766.061 1111.41 734.87 1083.84 712.247 1059.35 C 709.85 1068.05 729.26 1099.99 732.969 1109.69 C 723.16 1105.38 713.566 1099.49 704.266 1094.1 C 702.367 1092.48 702.066 1092.48 699.755 1091.44 C 694.671 1089.13 683.284 1081.97 676.822 1078.68 C 668.025 1074.2 655.166 1068.7 647.335 1064.06 C 644.478 1062.03 644.666 1062.1 641.296 1061.16 C 617.247 1052.01 594.442 1040.15 569.038 1033.66 C 564.745 1032.57 554.85 1029.47 551.608 1027.2 C 544.09 1023.04 506.521 1023.02 496.051 1022.84 C 538.391 975.999 570.828 943.402 620.228 904.814 C 628.57 898.048 644.572 885.766 651.646 878.707 C 657.006 880.913 662.523 882.477 668.066 884.186 C 686.266 879.826 707.251 870.608 727.155 865.458 L 735.839 861.786 C 741.816 864.898 757.072 873.321 762.671 875.393 C 741.613 851.553 721.93 830.921 699.663 807.996 C 702.396 808.378 706.088 808.683 708.811 808.938 C 780.223 815.618 807.77 844.62 849.905 896.376 L 850.732 896.114 C 849.777 893.528 839.98 879.123 837.898 875.937 C 824.707 855.731 810.815 835.993 796.246 816.756 C 786.9 804.644 772.994 788.958 765.246 776.217 L 764.442 774.882 C 754.907 763.76 745.954 748.973 739.282 735.925 C 735.056 727.66 731.776 718.844 726.761 711.007 C 726.598 733.168 728.964 744.673 733.551 765.991 C 731.222 763.691 728.919 761.158 726.671 758.757 C 715.157 747.026 645.14 672.269 637.797 670.973 C 635.255 673.319 634.768 674.948 634.663 678.538 C 633.046 734.042 638.456 788.057 645.4 843.009 C 643.828 841.913 637.729 837.841 636.636 836.835 C 628.21 832.443 596.421 812.483 588.659 806.588 C 578.552 800.684 563.397 789.836 553.395 783.151 C 551.246 759.931 548.674 739.472 547.578 715.994 C 545.289 661.156 549.705 606.245 560.728 552.477 C 562.31 544.754 572.353 496.648 577.334 494.397 C 584.635 497.674 609.863 509.098 614.98 513.259 C 707.039 562.376 792.651 630.353 858.552 711.591 C 869.991 725.693 883.79 743.417 892.196 759.224 C 895.918 750.069 900.164 740.712 904.135 731.63 C 916.783 730.167 928.409 728.527 941.162 727.879 C 932.863 720.002 924.263 712.448 915.38 705.235 L 907.555 699.094 C 977.68 677.844 1042.74 671.572 1114.37 691.799 C 1119.64 693.289 1134.1 696.251 1137.99 699.076 L 1138.04 700.821 L 1134.48 703.794 C 1125.06 711.791 1117.18 720.044 1108.25 727.822 C 1120.88 728.678 1132.6 730.451 1144.91 731.475 C 1146.84 736.604 1153.16 754.419 1156 757.774 C 1160.45 749.87 1165.67 742.264 1171.11 734.951 C 1239.9 642.598 1330.44 567.696 1431.77 513.428 C 1444.59 506.563 1458.21 499.056 1471.52 493.701 z"/>
<path transform="translate(0,0)" fill="rgb(252,155,2)" d="M 1471.52 493.701 C 1476.11 503.158 1480.06 523.243 1482.83 534.219 C 1501.54 608.182 1506.48 707.835 1493.9 783.429 L 1459.35 806.82 C 1450.82 813.264 1422.71 830.576 1413.07 835.756 L 1402.45 842.979 C 1404.31 823.669 1407.59 805.54 1409.32 784.941 C 1412.31 749.176 1414.56 709.893 1412.44 673.822 C 1412.32 671.769 1410.54 671.065 1408.97 670.407 C 1403.18 672.281 1325.22 754.777 1314.29 766.014 C 1315.87 761.502 1317.27 755.771 1318.55 751.077 L 1322.03 708.419 C 1313.44 727.276 1297.76 759.893 1283.51 775.15 C 1276.16 787.563 1259.81 806.716 1250.65 818.654 C 1234.52 839.773 1219.15 861.462 1204.56 883.678 L 1206.35 885.249 C 1246.05 836.174 1282.6 810.582 1347.69 808.629 C 1324.2 829.32 1306.33 855.917 1286.4 874.277 C 1277.48 882.849 1277.25 892.382 1276.99 904.609 C 1283.45 904.699 1293.54 904.514 1299.47 905.87 C 1251.64 905.363 1213.71 905.263 1177.74 941.296 C 1173.17 945.877 1166.91 952.766 1162.31 956.954 C 1165.62 943.459 1173.17 931.978 1177.31 919.639 C 1185.54 895.149 1192.23 870.997 1201.44 846.739 C 1205.89 835.023 1216 814.215 1218.19 803.086 C 1212.98 813.213 1205.04 822.683 1198.3 831.915 C 1169.72 871.035 1148.14 915.275 1128.42 959.387 C 1129.19 939.662 1130.43 919.959 1132.13 900.292 C 1133.35 887.472 1135.43 874.29 1136.55 861.83 C 1124.47 877.742 1112.46 893.555 1100.26 909.386 C 1076.48 940.238 1049.07 968.023 1024.23 997.797 C 1015.93 987.677 1006.31 977.856 997.603 967.946 C 967.361 933.542 937.882 897.531 909.992 861.182 C 915.337 890.115 919.514 929.637 919.039 959.019 C 891.972 897.868 871.819 858.429 829.233 805.243 C 845.24 844.792 860.568 882.988 872.251 924.042 C 875.281 934.686 884.358 948.687 886.575 958.946 C 883.561 956.22 879.677 951.183 876.763 948.086 C 845.796 915.161 819.83 908.18 777.193 906.04 C 774.819 900 772.702 894.545 770.681 888.38 C 768.419 882.423 767.404 879.653 762.671 875.393 C 741.613 851.553 721.93 830.921 699.663 807.996 C 702.396 808.378 706.088 808.683 708.811 808.938 C 780.223 815.618 807.77 844.62 849.905 896.376 L 850.732 896.114 C 849.777 893.528 839.98 879.123 837.898 875.937 C 824.707 855.731 810.815 835.993 796.246 816.756 C 786.9 804.644 772.994 788.958 765.246 776.217 L 764.442 774.882 C 754.907 763.76 745.954 748.973 739.282 735.925 C 735.056 727.66 731.776 718.844 726.761 711.007 C 726.598 733.168 728.964 744.673 733.551 765.991 C 731.222 763.691 728.919 761.158 726.671 758.757 C 715.157 747.026 645.14 672.269 637.797 670.973 C 635.255 673.319 634.768 674.948 634.663 678.538 C 633.046 734.042 638.456 788.057 645.4 843.009 C 643.828 841.913 637.729 837.841 636.636 836.835 C 628.21 832.443 596.421 812.483 588.659 806.588 C 578.552 800.684 563.397 789.836 553.395 783.151 C 551.246 759.931 548.674 739.472 547.578 715.994 C 545.289 661.156 549.705 606.245 560.728 552.477 C 562.31 544.754 572.353 496.648 577.334 494.397 C 584.635 497.674 609.863 509.098 614.98 513.259 C 707.039 562.376 792.651 630.353 858.552 711.591 C 869.991 725.693 883.79 743.417 892.196 759.224 C 895.918 750.069 900.164 740.712 904.135 731.63 C 916.783 730.167 928.409 728.527 941.162 727.879 C 932.863 720.002 924.263 712.448 915.38 705.235 L 907.555 699.094 C 977.68 677.844 1042.74 671.572 1114.37 691.799 C 1119.64 693.289 1134.1 696.251 1137.99 699.076 L 1138.04 700.821 L 1134.48 703.794 C 1125.06 711.791 1117.18 720.044 1108.25 727.822 C 1120.88 728.678 1132.6 730.451 1144.91 731.475 C 1146.84 736.604 1153.16 754.419 1156 757.774 C 1160.45 749.87 1165.67 742.264 1171.11 734.951 C 1239.9 642.598 1330.44 567.696 1431.77 513.428 C 1444.59 506.563 1458.21 499.056 1471.52 493.701 z"/>
<path transform="translate(0,0)" fill="rgb(250,95,2)" d="M 553.395 783.151 C 551.246 759.931 548.674 739.472 547.578 715.994 C 545.289 661.156 549.705 606.245 560.728 552.477 C 562.31 544.754 572.353 496.648 577.334 494.397 C 584.635 497.674 609.863 509.098 614.98 513.259 C 611.876 521.157 624.649 530.868 628.719 535.76 C 625.743 534.248 620.369 530.371 617.197 528.329 C 623.565 544.308 632.362 564.757 640.058 580.392 L 641.28 585.542 L 644.503 588.822 C 650.277 603.508 650.191 610.007 644.56 625.133 C 672.469 657.833 695.551 692.617 715.789 730.5 C 719.524 737.49 729.335 751.331 726.671 758.757 C 715.157 747.026 645.14 672.269 637.797 670.973 C 635.255 673.319 634.768 674.948 634.663 678.538 C 633.046 734.042 638.456 788.057 645.4 843.009 C 643.828 841.913 637.729 837.841 636.636 836.835 C 628.21 832.443 596.421 812.483 588.659 806.588 C 578.552 800.684 563.397 789.836 553.395 783.151 z"/>
<path transform="translate(0,0)" fill="rgb(250,95,2)" d="M 644.56 625.133 C 672.469 657.833 695.551 692.617 715.789 730.5 C 719.524 737.49 729.335 751.331 726.671 758.757 C 715.157 747.026 645.14 672.269 637.797 670.973 C 635.255 673.319 634.768 674.948 634.663 678.538 C 633.046 734.042 638.456 788.057 645.4 843.009 C 643.828 841.913 637.729 837.841 636.636 836.835 C 616.102 780.173 604.868 704.012 606.165 643.96 C 623.679 645.055 634.125 638.867 644.56 625.133 z"/>
<path transform="translate(0,0)" fill="rgb(190,62,1)" d="M 580.525 624.297 L 584.187 626.606 C 589.495 637.751 594.586 639.717 606.165 643.96 C 604.868 704.012 616.102 780.173 636.636 836.835 C 628.21 832.443 596.421 812.483 588.659 806.588 C 589.642 805.003 581.993 768.323 581.257 762.604 C 577.092 730.216 575.918 697.364 577.654 664.73 C 578.287 652.832 578.368 635.945 580.525 624.297 z"/>
<path transform="translate(0,0)" fill="rgb(0,0,0)" d="M 624.111 573.253 C 630.908 577.517 634.952 580.541 641.28 585.542 L 644.503 588.822 C 650.277 603.508 650.191 610.007 644.56 625.133 C 634.125 638.867 623.679 645.055 606.165 643.96 C 594.586 639.717 589.495 637.751 584.187 626.606 C 591.076 621.506 594.739 622.736 603.471 623.17 C 602.262 613.671 600.999 588.854 602.503 579.678 C 605.392 579.054 605.008 579.665 608.423 581.661 C 610.444 583.277 613.68 586.023 615.689 587.435 C 617.161 580.853 618.598 576.956 624.111 573.253 z"/>
<path transform="translate(0,0)" fill="rgb(252,155,2)" d="M 603.471 623.17 C 602.262 613.671 600.999 588.854 602.503 579.678 C 605.392 579.054 605.008 579.665 608.423 581.661 C 610.444 583.277 613.68 586.023 615.689 587.435 C 622.554 593.024 630.262 599.185 630.819 608.679 C 631.801 625.406 616.555 631.85 603.471 623.17 z"/>
<path transform="translate(0,0)" fill="rgb(136,39,1)" d="M 591.761 551.307 C 601.116 556.468 609.998 562.442 618.305 569.16 L 624.111 573.253 C 618.598 576.956 617.161 580.853 615.689 587.435 C 613.68 586.023 610.444 583.277 608.423 581.661 C 605.008 579.665 605.392 579.054 602.503 579.678 C 600.999 588.854 602.262 613.671 603.471 623.17 C 594.739 622.736 591.076 621.506 584.187 626.606 L 580.525 624.297 C 583.364 598.177 585.602 576.743 591.761 551.307 z"/>
<path transform="translate(0,0)" fill="rgb(66,18,2)" d="M 608.423 581.661 C 608.577 578.412 608.316 575.608 608.566 571.947 C 611.302 569.491 613.937 569.91 618.305 569.16 L 624.111 573.253 C 618.598 576.956 617.161 580.853 615.689 587.435 C 613.68 586.023 610.444 583.277 608.423 581.661 z"/>
<path transform="translate(0,0)" fill="rgb(251,196,98)" d="M 577.334 494.397 C 584.635 497.674 609.863 509.098 614.98 513.259 C 611.876 521.157 624.649 530.868 628.719 535.76 C 625.743 534.248 620.369 530.371 617.197 528.329 C 604.929 515.5 588.835 510.079 577.334 494.397 z"/>
<path transform="translate(0,0)" fill="url(#Gradient2)" d="M 1471.52 493.701 C 1476.11 503.158 1480.06 523.243 1482.83 534.219 C 1501.54 608.182 1506.48 707.835 1493.9 783.429 L 1459.35 806.82 C 1450.82 813.264 1422.71 830.576 1413.07 835.756 L 1402.45 842.979 C 1404.31 823.669 1407.59 805.54 1409.32 784.941 C 1412.31 749.176 1414.56 709.893 1412.44 673.822 C 1412.32 671.769 1410.54 671.065 1408.97 670.407 C 1403.18 672.281 1325.22 754.777 1314.29 766.014 C 1315.87 761.502 1317.27 755.771 1318.55 751.077 C 1322.01 746.421 1325.07 740.865 1327.98 735.859 C 1345.84 705.13 1363.13 674.258 1385.35 646.371 C 1390.7 639.656 1397.05 629.912 1403.44 624.325 C 1397.56 608.507 1398.63 603.501 1403.98 588.332 L 1404.47 587.718 L 1405.62 582.045 C 1413.04 574.041 1426.1 539.216 1430.58 527.903 C 1438.62 517.466 1462.65 507.944 1471.52 493.701 z"/>
<path transform="translate(0,0)" fill="rgb(250,95,2)" d="M 1471.52 493.701 C 1476.11 503.158 1480.06 523.243 1482.83 534.219 C 1501.54 608.182 1506.48 707.835 1493.9 783.429 L 1459.35 806.82 C 1459.33 800.551 1461.21 790.11 1462.39 783.673 C 1476.77 705.482 1471 628.697 1457.11 550.566 C 1450.66 554.558 1443.75 558.627 1437.79 563.246 L 1425.5 571.831 C 1418.68 576.735 1410.65 582.198 1404.47 587.718 L 1405.62 582.045 C 1413.04 574.041 1426.1 539.216 1430.58 527.903 C 1438.62 517.466 1462.65 507.944 1471.52 493.701 z"/>
<path transform="translate(0,0)" fill="rgb(250,95,2)" d="M 1403.44 624.325 C 1412.94 638.858 1424.32 645.743 1442.22 643.636 C 1442.89 648.123 1442.23 661.641 1442.06 666.707 C 1440.87 707.63 1435.41 748.317 1425.77 788.105 C 1423.01 799.284 1413.75 826.292 1413.07 835.756 L 1402.45 842.979 C 1404.31 823.669 1407.59 805.54 1409.32 784.941 C 1412.31 749.176 1414.56 709.893 1412.44 673.822 C 1412.32 671.769 1410.54 671.065 1408.97 670.407 C 1403.18 672.281 1325.22 754.777 1314.29 766.014 C 1315.87 761.502 1317.27 755.771 1318.55 751.077 C 1322.01 746.421 1325.07 740.865 1327.98 735.859 C 1345.84 705.13 1363.13 674.258 1385.35 646.371 C 1390.7 639.656 1397.05 629.912 1403.44 624.325 z"/>
<path transform="translate(0,0)" fill="url(#Gradient1)" d="M 1437.79 563.246 C 1441.07 569.62 1438.38 575.015 1441.82 579.496 L 1444.58 578.583 C 1448.85 583.001 1445.22 617.272 1444.05 624.02 C 1449.13 622.289 1453.69 621.081 1458.85 623.526 C 1465.02 633.422 1449.72 641.022 1442.22 643.636 C 1424.32 645.743 1412.94 638.858 1403.44 624.325 C 1397.56 608.507 1398.63 603.501 1403.98 588.332 L 1404.47 587.718 C 1410.65 582.198 1418.68 576.735 1425.5 571.831 L 1437.79 563.246 z"/>
<path transform="translate(0,0)" fill="rgb(252,155,2)" d="M 1441.82 579.496 L 1444.58 578.583 C 1448.85 583.001 1445.22 617.272 1444.05 624.02 C 1436.62 628.591 1427.72 627.916 1421.78 621.2 C 1418.82 617.819 1417.33 613.398 1417.63 608.913 C 1418.4 598.155 1427.49 592.056 1435.14 585.786 C 1437.63 583.919 1439.63 581.716 1441.82 579.496 z"/>
<path transform="translate(0,0)" fill="rgb(66,18,2)" d="M 1437.79 563.246 C 1441.07 569.62 1438.38 575.015 1441.82 579.496 C 1439.63 581.716 1437.63 583.919 1435.14 585.786 C 1435.48 576.595 1432.81 575.951 1425.5 571.831 L 1437.79 563.246 z"/>
<path transform="translate(0,0)" fill="rgb(251,195,57)" d="M 1156 757.774 C 1160.45 749.87 1165.67 742.264 1171.11 734.951 C 1239.9 642.598 1330.44 567.696 1431.77 513.428 C 1444.59 506.563 1458.21 499.056 1471.52 493.701 C 1462.65 507.944 1438.62 517.466 1430.58 527.903 C 1426.1 539.216 1413.04 574.041 1405.62 582.045 L 1404.71 582.629 C 1396.92 587.517 1388.51 590.969 1380.6 595.59 C 1308.63 637.631 1251.52 701.448 1198.23 764.431 C 1180.92 784.887 1164.23 804.267 1147.86 825.311 C 1150.54 811.495 1159.08 772.376 1157.72 760.464 L 1156 757.774 z"/>
<path transform="translate(0,0)" fill="rgb(251,213,133)" d="M 1156 757.774 C 1160.45 749.87 1165.67 742.264 1171.11 734.951 C 1239.9 642.598 1330.44 567.696 1431.77 513.428 C 1444.59 506.563 1458.21 499.056 1471.52 493.701 C 1462.65 507.944 1438.62 517.466 1430.58 527.903 C 1414.84 539.349 1399.34 548.636 1383.72 559.511 C 1353.16 580.789 1321.12 603.818 1293.25 628.319 C 1274.83 644.824 1256.9 661.876 1239.5 679.452 C 1222.69 696.654 1175.05 753.385 1157.72 760.464 L 1156 757.774 z"/>
<path transform="translate(0,0)" fill="rgb(251,195,57)" d="M 614.98 513.259 C 707.039 562.376 792.651 630.353 858.552 711.591 C 869.991 725.693 883.79 743.417 892.196 759.224 L 889.108 761.8 C 888.963 773 897.4 814.565 900.482 826.062 C 887.292 807.906 871.987 791.824 857.281 774.325 C 801.356 707.776 740.682 637.935 664.745 593.662 C 657.017 589.157 646.699 585.97 640.058 580.392 C 632.362 564.757 623.565 544.308 617.197 528.329 C 620.369 530.371 625.743 534.248 628.719 535.76 C 624.649 530.868 611.876 521.157 614.98 513.259 z"/>
<path transform="translate(0,0)" fill="rgb(251,213,133)" d="M 614.98 513.259 C 707.039 562.376 792.651 630.353 858.552 711.591 C 869.991 725.693 883.79 743.417 892.196 759.224 L 889.108 761.8 C 874.507 753.685 828.71 700.942 815.328 686.25 C 806.414 676.582 797.155 667.238 787.57 658.235 C 738.416 612.709 685.25 571.717 628.719 535.76 C 624.649 530.868 611.876 521.157 614.98 513.259 z"/>
<path transform="translate(0,0)" fill="rgb(251,195,57)" d="M 907.555 699.094 C 977.68 677.844 1042.74 671.572 1114.37 691.799 C 1119.64 693.289 1134.1 696.251 1137.99 699.076 L 1138.04 700.821 L 1134.48 703.794 C 1127.95 699.947 1122.1 701.859 1114.4 703.748 C 1081.59 711.807 1049.06 730.678 1024.06 753.306 C 1000.77 731.162 955.819 705.356 922.403 701.66 C 918.748 701.255 917.713 703.044 915.38 705.235 L 907.555 699.094 z"/>
<path transform="translate(0,0)" fill="rgb(190,62,1)" d="M 644.503 588.822 C 650.568 592.904 658.478 602.604 664.293 609.791 C 704.019 658.884 743.297 713.663 764.287 773.689 C 764.339 774.087 764.39 774.484 764.442 774.882 C 754.907 763.76 745.954 748.973 739.282 735.925 C 735.056 727.66 731.776 718.844 726.761 711.007 C 726.598 733.168 728.964 744.673 733.551 765.991 C 731.222 763.691 728.919 761.158 726.671 758.757 C 729.335 751.331 719.524 737.49 715.789 730.5 C 695.551 692.617 672.469 657.833 644.56 625.133 C 650.191 610.007 650.277 603.508 644.503 588.822 z"/>
<path transform="translate(0,0)" fill="rgb(190,62,1)" d="M 1283.51 775.15 C 1283.51 775.113 1283.64 772.924 1283.76 772.561 C 1302.55 716.102 1344.17 659.575 1381 613.066 C 1386.93 605.58 1397.65 592.574 1403.98 588.332 C 1398.63 603.501 1397.56 608.507 1403.44 624.325 C 1397.05 629.912 1390.7 639.656 1385.35 646.371 C 1363.13 674.258 1345.84 705.13 1327.98 735.859 C 1325.07 740.865 1322.01 746.421 1318.55 751.077 L 1322.03 708.419 C 1313.44 727.276 1297.76 759.893 1283.51 775.15 z"/>
<path transform="translate(0,0)" fill="rgb(66,18,2)" d="M 1206.35 885.249 C 1200.55 893.136 1195.85 899.472 1189.38 906.909 C 1194.05 898.919 1199.12 891.166 1204.56 883.678 L 1206.35 885.249 z"/>
<path transform="translate(0,0)" fill="rgb(254,254,254)" d="M 1317.98 863.407 C 1328.06 865.691 1339.31 870.704 1349.15 874.23 C 1366.83 880.562 1376.41 886.516 1394.9 878.523 C 1402.1 884.105 1420.07 901.033 1426.16 904.568 C 1432.39 907.969 1444.85 918.626 1450.62 923.47 C 1486.69 954.197 1520.6 987.372 1552.1 1022.76 C 1541.56 1022.98 1506.18 1023.37 1498.12 1027.09 C 1499 1027.61 1502.86 1029.81 1503.38 1030.31 C 1533.85 1044.54 1565.76 1062.94 1595.47 1078.89 C 1602.53 1082.67 1625.81 1095.2 1631.43 1099.51 C 1630.61 1100.73 1629.64 1102.3 1628.79 1103.45 C 1582.68 1156.27 1509.6 1224.43 1438.75 1239.01 C 1476.08 1249.8 1502.52 1255.08 1541.43 1246.97 C 1527.36 1256.71 1512.86 1269.82 1498.77 1280.43 C 1469.71 1301.98 1438.3 1320.17 1405.15 1334.67 C 1356.32 1356.17 1305.31 1367.49 1255.75 1386.48 C 1233.13 1395.15 1208.34 1408.79 1187.62 1421.43 C 1203.52 1405.23 1214.99 1395.74 1227.22 1375.79 C 1243.85 1348.67 1241.72 1321.22 1268.84 1301.54 C 1276.01 1296.33 1281.22 1293.45 1288.47 1288.77 C 1266.82 1292.14 1243.54 1292.17 1222.31 1284.56 C 1218.08 1283.04 1209.92 1276.85 1207.07 1275.97 C 1206.76 1280.29 1206.45 1284.22 1205.93 1288.53 C 1200.54 1333.75 1187.59 1378.72 1150.49 1407.91 C 1117.56 1433.82 1073.81 1434.84 1043.96 1404.44 L 1044.01 1384.39 C 1058.69 1380.08 1062.51 1377.48 1075.63 1369.49 C 1080.56 1365.57 1085.27 1361.38 1089.75 1356.94 C 1108.42 1338.66 1116.81 1318.43 1117.18 1292.6 C 1115.83 1290.87 1112.46 1287.53 1110.8 1285.8 C 1112.15 1282.18 1111.33 1266.49 1111.28 1261.75 L 1110.73 1203.62 C 1110.55 1193.25 1109.62 1175.98 1110.66 1166.5 C 1110.99 1172.34 1110.28 1182.01 1116.41 1184.64 C 1143.44 1153.56 1164.97 1153.62 1202.7 1143.66 C 1215.26 1140.36 1227.55 1136.14 1239.48 1131.03 C 1277.44 1114.58 1307.99 1088.38 1335.75 1058.31 C 1340.18 1051.4 1351.4 1040.38 1356.65 1033 C 1369.68 1014.66 1381.08 996.233 1392.66 976.981 C 1412.58 977.319 1458.25 991.656 1477.18 998.032 C 1449.75 959.451 1406.57 923.221 1367.14 896.917 C 1355.17 888.939 1326.8 872.891 1317.98 863.407 z"/>
<path transform="translate(0,0)" fill="rgb(225,225,224)" d="M 1207.07 1275.97 C 1207.2 1275.22 1207.73 1273.86 1207.99 1273.08 C 1223.31 1262.04 1299.52 1240.02 1322.16 1232.99 C 1345.63 1225.85 1368.89 1218.03 1391.91 1209.55 C 1398.89 1206.96 1405.85 1204.25 1412.83 1201.71 C 1458.51 1185.1 1502.48 1163.31 1546.06 1141.94 C 1560.57 1134.97 1574.96 1127.75 1589.23 1120.29 C 1600.37 1114.38 1616.48 1103.01 1628.79 1103.45 C 1582.68 1156.27 1509.6 1224.43 1438.75 1239.01 C 1476.08 1249.8 1502.52 1255.08 1541.43 1246.97 C 1527.36 1256.71 1512.86 1269.82 1498.77 1280.43 C 1469.71 1301.98 1438.3 1320.17 1405.15 1334.67 C 1356.32 1356.17 1305.31 1367.49 1255.75 1386.48 C 1233.13 1395.15 1208.34 1408.79 1187.62 1421.43 C 1203.52 1405.23 1214.99 1395.74 1227.22 1375.79 C 1243.85 1348.67 1241.72 1321.22 1268.84 1301.54 C 1276.01 1296.33 1281.22 1293.45 1288.47 1288.77 C 1266.82 1292.14 1243.54 1292.17 1222.31 1284.56 C 1218.08 1283.04 1209.92 1276.85 1207.07 1275.97 z"/>
<path transform="translate(0,0)" fill="rgb(254,254,254)" d="M 1392.59 1247.31 C 1397.61 1246.98 1408.5 1247.57 1412.43 1250.27 C 1448.73 1275.17 1365.85 1298.66 1352.7 1302.16 C 1343.73 1304.3 1334.74 1306.36 1325.73 1308.36 C 1345.91 1283.65 1358.15 1252.43 1392.59 1247.31 z"/>
<path transform="translate(0,0)" fill="rgb(190,62,1)" d="M 1317.98 863.407 C 1328.06 865.691 1339.31 870.704 1349.15 874.23 C 1366.83 880.562 1376.41 886.516 1394.9 878.523 C 1402.1 884.105 1420.07 901.033 1426.16 904.568 C 1432.39 907.969 1444.85 918.626 1450.62 923.47 C 1486.69 954.197 1520.6 987.372 1552.1 1022.76 C 1541.56 1022.98 1506.18 1023.37 1498.12 1027.09 C 1499 1027.61 1502.86 1029.81 1503.38 1030.31 C 1504.63 1033.95 1515.56 1040.26 1519.34 1043.05 C 1536.52 1055.76 1558.1 1071.47 1568.84 1090.2 C 1511.24 1131.09 1463.17 1152.37 1396.11 1172.3 C 1386.9 1157.27 1362.91 1138.23 1347.94 1128.74 C 1337.95 1122.4 1326.36 1117.28 1316.18 1110.81 L 1315.21 1110.18 C 1316.58 1100.79 1337.97 1066.89 1335.75 1058.31 C 1340.18 1051.4 1351.4 1040.38 1356.65 1033 C 1369.68 1014.66 1381.08 996.233 1392.66 976.981 C 1412.58 977.319 1458.25 991.656 1477.18 998.032 C 1449.75 959.451 1406.57 923.221 1367.14 896.917 C 1355.17 888.939 1326.8 872.891 1317.98 863.407 z"/>
<path transform="translate(0,0)" fill="rgb(252,155,2)" d="M 1498.12 1027.09 C 1499 1027.61 1502.86 1029.81 1503.38 1030.31 C 1504.63 1033.95 1515.56 1040.26 1519.34 1043.05 C 1536.52 1055.76 1558.1 1071.47 1568.84 1090.2 C 1511.24 1131.09 1463.17 1152.37 1396.11 1172.3 C 1386.9 1157.27 1362.91 1138.23 1347.94 1128.74 C 1337.95 1122.4 1326.36 1117.28 1316.18 1110.81 L 1315.21 1110.18 C 1324.83 1105.55 1335.02 1099.59 1344.42 1094.36 C 1366.84 1110.84 1396.14 1124.67 1409 1148.06 C 1417.43 1135.78 1421.94 1130.24 1432.58 1119.83 C 1407.87 1112.82 1374.75 1099.93 1350.04 1090.82 C 1367.83 1080.42 1383.2 1072 1401.98 1063.43 C 1426.93 1079.35 1460.31 1091.27 1475.27 1114.99 C 1480.94 1103.37 1486.65 1093.46 1493.31 1082.44 C 1470.12 1076.37 1428.99 1064.46 1406.64 1061.51 C 1430.19 1050.8 1453.59 1041.33 1478.37 1033.78 C 1484.98 1031.77 1491.68 1029.56 1498.12 1027.09 z"/>
<path transform="translate(0,0)" fill="rgb(250,95,2)" d="M 1335.75 1058.31 C 1337.97 1066.89 1316.58 1100.79 1315.21 1110.18 L 1316.18 1110.81 C 1326.36 1117.28 1337.95 1122.4 1347.94 1128.74 C 1362.91 1138.23 1386.9 1157.27 1396.11 1172.3 C 1378.58 1174.27 1364.6 1171.59 1347.81 1169.76 C 1260.8 1160.31 1176 1212.05 1126.29 1280.66 C 1123.7 1284.24 1120.08 1289.41 1117.18 1292.6 C 1115.83 1290.87 1112.46 1287.53 1110.8 1285.8 C 1112.15 1282.18 1111.33 1266.49 1111.28 1261.75 L 1110.73 1203.62 C 1110.55 1193.25 1109.62 1175.98 1110.66 1166.5 C 1110.99 1172.34 1110.28 1182.01 1116.41 1184.64 C 1143.44 1153.56 1164.97 1153.62 1202.7 1143.66 C 1215.26 1140.36 1227.55 1136.14 1239.48 1131.03 C 1277.44 1114.58 1307.99 1088.38 1335.75 1058.31 z"/>
<path transform="translate(0,0)" fill="rgb(225,225,224)" d="M 1075.63 1369.49 C 1080.22 1371.95 1100.05 1374.66 1106.19 1374.82 C 1145.14 1376.46 1173.59 1350.32 1189.88 1317.1 C 1193.21 1310.31 1200.34 1292.53 1205.93 1288.53 C 1200.54 1333.75 1187.59 1378.72 1150.49 1407.91 C 1117.56 1433.82 1073.81 1434.84 1043.96 1404.44 L 1044.01 1384.39 C 1058.69 1380.08 1062.51 1377.48 1075.63 1369.49 z"/>
<path transform="translate(0,0)" fill="rgb(0,0,0)" d="M 656.807 976.103 C 672.424 975.13 686.735 972.884 702.646 972.964 C 759.84 973.249 829.293 997.654 869.244 1040.16 C 878.911 1042.48 905.258 1072.41 912.568 1081.28 C 930.825 1103.42 950.022 1132.34 959.599 1159.39 C 950.85 1161.46 944.504 1163.11 936.003 1165.94 L 935.849 1183.11 L 934.305 1185.97 L 932.598 1186.28 L 930.522 1183.87 C 904.906 1154.02 876.628 1152.34 840.614 1142.55 C 825.305 1138.33 810.403 1132.74 796.083 1125.87 C 766.061 1111.41 734.87 1083.84 712.247 1059.35 C 707.575 1053.1 700.599 1045.41 695.882 1039.58 C 689.022 1031.1 654.199 982.929 656.807 976.103 z"/>
<path transform="translate(0,0)" fill="rgb(190,62,1)" d="M 869.244 1040.16 C 878.911 1042.48 905.258 1072.41 912.568 1081.28 C 930.825 1103.42 950.022 1132.34 959.599 1159.39 C 950.85 1161.46 944.504 1163.11 936.003 1165.94 L 935.849 1183.11 L 934.305 1185.97 L 932.598 1186.28 L 930.522 1183.87 C 931.305 1176.18 928.439 1161.51 926.782 1153.8 C 916.659 1106.72 898.453 1076.77 869.244 1040.16 z"/>
<path transform="translate(0,0)" fill="rgb(4,222,212)" d="M 766.971 1020.5 C 819.728 1034.24 854.906 1057.01 878.51 1107.33 C 869.908 1107.39 861.306 1107.25 852.711 1106.91 C 819.053 1105.26 781.667 1091.9 769.983 1057.02 C 765.716 1044.29 766.173 1033.72 766.971 1020.5 z"/>
<path transform="translate(0,0)" fill="rgb(0,0,0)" d="M 1178.87 1039.28 C 1184.06 1033.99 1192.47 1026.62 1198.47 1022.4 C 1259.89 979.19 1319.94 966.453 1392.66 976.981 C 1381.08 996.233 1369.68 1014.66 1356.65 1033 C 1351.4 1040.38 1340.18 1051.4 1335.75 1058.31 C 1307.99 1088.38 1277.44 1114.58 1239.48 1131.03 C 1227.55 1136.14 1215.26 1140.36 1202.7 1143.66 C 1164.97 1153.62 1143.44 1153.56 1116.41 1184.64 C 1110.28 1182.01 1110.99 1172.34 1110.66 1166.5 C 1103.33 1163.98 1096.3 1162.17 1088.81 1160.18 C 1097.25 1137.57 1110.16 1113.07 1125.04 1093.88 C 1133.34 1083.18 1167.77 1040.66 1178.87 1039.28 z"/>
<path transform="translate(0,0)" fill="rgb(190,62,1)" d="M 1088.81 1160.18 C 1097.25 1137.57 1110.16 1113.07 1125.04 1093.88 C 1133.34 1083.18 1167.77 1040.66 1178.87 1039.28 C 1169.61 1051.63 1160.01 1063.69 1151.73 1076.76 C 1133.99 1104.76 1118.03 1150.8 1116.41 1184.64 C 1110.28 1182.01 1110.99 1172.34 1110.66 1166.5 C 1103.33 1163.98 1096.3 1162.17 1088.81 1160.18 z"/>
<path transform="translate(0,0)" fill="rgb(4,222,212)" d="M 1278.21 1021.06 C 1280.01 1020.95 1279.2 1020.98 1281.15 1021.89 C 1282.32 1024.95 1282.64 1027.57 1282.6 1030.87 C 1281.79 1094.39 1227.39 1106.31 1175.29 1107.63 C 1172.72 1107.58 1172.71 1107.71 1170.34 1106.8 C 1170.51 1103.36 1172.39 1100.73 1174.16 1097.47 C 1199.99 1050.02 1229.74 1035.96 1278.21 1021.06 z"/>
<path transform="translate(0,0)" fill="rgb(190,62,1)" d="M 668.066 884.186 C 686.266 879.826 707.251 870.608 727.155 865.458 C 721.089 872.062 690.655 889.885 682.018 895.565 C 641.646 922.115 597.638 958.756 570.634 998.751 C 603.533 984.141 623.354 982.972 656.807 976.103 C 654.199 982.929 689.022 1031.1 695.882 1039.58 C 700.599 1045.41 707.575 1053.1 712.247 1059.35 C 709.85 1068.05 729.26 1099.99 732.969 1109.69 C 723.16 1105.38 713.566 1099.49 704.266 1094.1 C 702.367 1092.48 702.066 1092.48 699.755 1091.44 C 694.671 1089.13 683.284 1081.97 676.822 1078.68 C 668.025 1074.2 655.166 1068.7 647.335 1064.06 C 644.478 1062.03 644.666 1062.1 641.296 1061.16 C 617.247 1052.01 594.442 1040.15 569.038 1033.66 C 564.745 1032.57 554.85 1029.47 551.608 1027.2 C 544.09 1023.04 506.521 1023.02 496.051 1022.84 C 538.391 975.999 570.828 943.402 620.228 904.814 C 628.57 898.048 644.572 885.766 651.646 878.707 C 657.006 880.913 662.523 882.477 668.066 884.186 z"/>
<path transform="translate(0,0)" fill="rgb(251,195,57)" d="M 1162.31 956.954 C 1166.91 952.766 1173.17 945.877 1177.74 941.296 C 1213.71 905.263 1251.64 905.363 1299.47 905.87 C 1306.38 906.432 1313.26 907.222 1320.12 908.238 L 1318.77 908.887 C 1307.49 914.199 1293.13 917.14 1281.27 922.887 C 1248.09 938.962 1217.51 958.818 1189.87 983.268 C 1181.32 990.833 1174.52 996.093 1167.99 1005.75 C 1153.99 1015.68 1134.34 1039.06 1123.52 1052.68 C 1135.9 1007.39 1138.07 997.937 1162.31 956.954 z"/>
<path transform="translate(0,0)" fill="rgb(251,195,57)" d="M 756.276 905.678 L 777.193 906.04 C 819.83 908.18 845.796 915.161 876.763 948.086 C 879.677 951.183 883.561 956.22 886.575 958.946 C 908.587 995.22 913.529 1012.77 924.271 1053.49 C 912.459 1038.44 896.19 1018.23 881.029 1006.71 C 878.488 1002.03 874.951 998.545 871.049 994.986 C 833.289 960.539 790.941 930.31 742.329 913.329 C 737.694 911.71 732.999 910.519 728.713 908.211 C 737.868 907.045 747.061 906.2 756.276 905.678 z"/>
<path transform="translate(0,0)" fill="rgb(252,155,2)" d="M 707.551 909.448 C 714.723 909.173 721.711 907.732 728.713 908.211 C 732.999 910.519 737.694 911.71 742.329 913.329 C 790.941 930.31 833.289 960.539 871.049 994.986 C 874.951 998.545 878.488 1002.03 881.029 1006.71 C 873.727 1003.58 862.757 993.541 855.763 988.68 C 816.289 961.239 772.18 940.248 728.773 919.829 C 721.629 916.469 714.381 913.426 707.551 909.448 z"/>
<path transform="translate(0,0)" fill="rgb(252,155,2)" d="M 1320.12 908.238 C 1327.21 908.274 1333.46 909.253 1340.42 909.552 C 1279.57 935.158 1221.74 967.421 1167.99 1005.75 C 1174.52 996.093 1181.32 990.833 1189.87 983.268 C 1217.51 958.818 1248.09 938.962 1281.27 922.887 C 1293.13 917.14 1307.49 914.199 1318.77 908.887 L 1320.12 908.238 z"/>
<path transform="translate(0,0)" fill="rgb(245,121,14)" d="M 770.681 888.38 C 772.702 894.545 774.819 900 777.193 906.04 L 756.276 905.678 C 758.129 904.251 759.689 904.661 762.521 904.439 C 764.746 902.79 769.043 891.864 770.681 888.38 z"/>
<path transform="translate(0,0)" fill="rgb(254,254,254)" d="M 551.608 1027.2 C 554.85 1029.47 564.745 1032.57 569.038 1033.66 C 594.442 1040.15 617.247 1052.01 641.296 1061.16 C 644.666 1062.1 644.478 1062.03 647.335 1064.06 C 655.166 1068.7 668.025 1074.2 676.822 1078.68 C 683.284 1081.97 694.671 1089.13 699.755 1091.44 C 702.066 1092.48 702.367 1092.48 704.266 1094.1 C 713.566 1099.49 723.16 1105.38 732.969 1109.69 C 729.26 1099.99 709.85 1068.05 712.247 1059.35 C 734.87 1083.84 766.061 1111.41 796.083 1125.87 C 810.403 1132.74 825.305 1138.33 840.614 1142.55 C 876.628 1152.34 904.906 1154.02 930.522 1183.87 L 932.598 1186.28 L 934.305 1185.97 L 935.849 1183.11 C 935.891 1195.65 933.947 1280.15 937.185 1285.85 L 930.946 1292.89 C 930.368 1317.3 938.677 1336.92 955.685 1354.57 C 960.06 1359.07 964.639 1363.36 969.407 1367.44 C 981.636 1376.29 989.072 1380.31 1003.38 1384.5 C 1003.29 1390.83 1003.66 1397.67 1003.89 1404.03 C 992.967 1417.35 976.325 1424.72 959.42 1426.57 C 918.17 1431.07 885.261 1404.46 865.632 1370.44 C 850.586 1344.36 844.497 1318.82 841.691 1288.9 C 841.061 1284.97 840.988 1279.89 840.807 1275.82 C 836.565 1277.22 830.722 1282.63 824.723 1284.73 C 802.877 1292.36 778.987 1292.08 756.657 1288.17 C 803.948 1310.68 797.856 1329.31 818.155 1372 C 825.339 1387.1 845.931 1407.86 858.486 1419.6 C 834.232 1407.63 815.472 1395.19 789.233 1385.43 C 759.526 1374.37 730.086 1365.53 699.833 1356.13 C 625.99 1333.19 565.561 1299.22 508.041 1247.1 C 543.821 1255.43 577.036 1247.91 611.667 1239.48 C 536.075 1223.05 467.353 1158.9 418.254 1102.2 L 416.689 1100.05 L 416.956 1098.62 C 456.982 1077.14 506.024 1046.46 547.718 1029.43 L 551.608 1027.2 z"/>
<path transform="translate(0,0)" fill="rgb(225,225,224)" d="M 418.254 1102.2 C 430.015 1103.08 455.472 1118.34 466.766 1124.24 C 489.088 1135.64 511.474 1146.9 533.924 1158.04 C 601.216 1190.63 668.075 1216.31 739.809 1237.54 C 752.189 1241.21 837.316 1265.03 840.807 1275.82 C 836.565 1277.22 830.722 1282.63 824.723 1284.73 C 802.877 1292.36 778.987 1292.08 756.657 1288.17 C 803.948 1310.68 797.856 1329.31 818.155 1372 C 825.339 1387.1 845.931 1407.86 858.486 1419.6 C 834.232 1407.63 815.472 1395.19 789.233 1385.43 C 759.526 1374.37 730.086 1365.53 699.833 1356.13 C 625.99 1333.19 565.561 1299.22 508.041 1247.1 C 543.821 1255.43 577.036 1247.91 611.667 1239.48 C 536.075 1223.05 467.353 1158.9 418.254 1102.2 z"/>
<path transform="translate(0,0)" fill="rgb(254,254,254)" d="M 647.71 1247.4 C 684.379 1246.22 701.256 1281.6 720.556 1307.61 C 713.459 1306.22 706.352 1304.88 699.237 1303.59 C 681.969 1299.42 630.066 1284.52 625.995 1265.01 C 625.327 1261.86 626.079 1258.59 628.052 1256.05 C 632.397 1250.35 641.065 1248.54 647.71 1247.4 z"/>
<path transform="translate(0,0)" fill="rgb(252,155,2)" d="M 551.608 1027.2 C 554.85 1029.47 564.745 1032.57 569.038 1033.66 C 594.442 1040.15 617.247 1052.01 641.296 1061.16 C 644.666 1062.1 644.478 1062.03 647.335 1064.06 C 655.166 1068.7 668.025 1074.2 676.822 1078.68 C 683.284 1081.97 694.671 1089.13 699.755 1091.44 C 702.066 1092.48 702.367 1092.48 704.266 1094.1 C 713.566 1099.49 723.16 1105.38 732.969 1109.69 L 733.011 1111.31 C 723.858 1116.6 713.422 1120.66 704.562 1125.74 C 684.758 1137.08 665.089 1154.17 651.006 1172.05 C 601.647 1158.76 555.533 1138.65 512.018 1111.88 C 500.313 1104.69 490.085 1098.96 479.466 1090.05 C 489.276 1072.68 511.666 1055.57 527.827 1044.2 C 534.448 1039.55 541.244 1036.13 548.047 1030.98 L 547.718 1029.43 L 551.608 1027.2 z"/>
<path transform="translate(0,0)" fill="rgb(190,62,1)" d="M 641.296 1061.16 C 644.666 1062.1 644.478 1062.03 647.335 1064.06 C 633.769 1072.06 619.552 1079.69 605.807 1087.41 C 590.045 1096.25 583.16 1099.66 573.783 1115.41 C 567.263 1105.29 560.289 1092.89 554.092 1082.45 C 582.971 1074.6 612.049 1067.5 641.296 1061.16 z"/>
<path transform="translate(0,0)" fill="rgb(190,62,1)" d="M 699.755 1091.44 C 702.066 1092.48 702.367 1092.48 704.266 1094.1 C 679.507 1113.04 655.567 1120.53 639.275 1148.23 C 629.15 1135.84 627.436 1131.15 614.37 1119.73 C 630.925 1116.16 682.515 1097.96 699.755 1091.44 z"/>
<path transform="translate(0,0)" fill="rgb(250,95,2)" d="M 712.247 1059.35 C 734.87 1083.84 766.061 1111.41 796.083 1125.87 C 810.403 1132.74 825.305 1138.33 840.614 1142.55 C 876.628 1152.34 904.906 1154.02 930.522 1183.87 L 932.598 1186.28 L 934.305 1185.97 L 935.849 1183.11 C 935.891 1195.65 933.947 1280.15 937.185 1285.85 L 930.946 1292.89 C 920.88 1280 908.423 1263.09 897.187 1251.59 C 849.838 1203.13 793.121 1171.8 724.203 1168.97 C 697.236 1167.87 674.645 1175.67 651.006 1172.05 C 665.089 1154.17 684.758 1137.08 704.562 1125.74 C 713.422 1120.66 723.858 1116.6 733.011 1111.31 L 732.969 1109.69 C 729.26 1099.99 709.85 1068.05 712.247 1059.35 z"/>
<path transform="translate(0,0)" fill="rgb(225,225,224)" d="M 841.691 1288.9 C 845.909 1291.86 848.541 1297.74 850.447 1302.39 C 866.16 1340.67 897.09 1377.5 942.214 1375 C 950.893 1374.51 961.601 1372.17 969.407 1367.44 C 981.636 1376.29 989.072 1380.31 1003.38 1384.5 C 1003.29 1390.83 1003.66 1397.67 1003.89 1404.03 C 992.967 1417.35 976.325 1424.72 959.42 1426.57 C 918.17 1431.07 885.261 1404.46 865.632 1370.44 C 850.586 1344.36 844.497 1318.82 841.691 1288.9 z"/>
<path transform="translate(0,0)" fill="rgb(252,155,2)" d="M 959.599 1159.39 C 1007.95 1148.22 1040.65 1148.8 1088.81 1160.18 C 1096.3 1162.17 1103.33 1163.98 1110.66 1166.5 C 1109.62 1175.98 1110.55 1193.25 1110.73 1203.62 L 1111.28 1261.75 C 1111.33 1266.49 1112.15 1282.18 1110.8 1285.8 C 1053.69 1244.36 993.904 1243.16 937.185 1285.85 C 933.947 1280.15 935.891 1195.65 935.849 1183.11 L 936.003 1165.94 C 944.504 1163.11 950.85 1161.46 959.599 1159.39 z"/>
<path transform="translate(0,0)" fill="rgb(190,189,193)" d="M 1023.66 1433.59 C 1040.62 1449.13 1055.21 1456.55 1077.92 1460.94 C 1100.77 1464.49 1115.71 1461.63 1136.57 1452.79 C 1123.95 1477.24 1109.79 1494.77 1085.29 1508.59 C 1056.06 1525.04 1021.45 1529.09 989.216 1519.83 C 952.328 1509.28 928.634 1485.72 910.57 1452.92 C 931.899 1461.67 945.632 1463.9 968.734 1461.14 C 992.561 1456.05 1005.74 1449.8 1023.66 1433.59 z"/>
<path transform="translate(0,0)" fill="rgb(225,225,224)" d="M 1023.66 1433.59 C 1040.62 1449.13 1055.21 1456.55 1077.92 1460.94 C 1059.89 1494.48 980.912 1493.12 968.734 1461.14 C 992.561 1456.05 1005.74 1449.8 1023.66 1433.59 z"/>
<path transform="translate(0,0)" fill="rgb(250,95,2)" d="M 1549.65 1290.47 C 1553.31 1292.67 1555.52 1293.16 1559.64 1294.48 C 1522.18 1355.19 1489.69 1379.61 1435.96 1424.7 C 1433.31 1427.13 1432.86 1427.76 1429.46 1429.23 C 1430.11 1424.02 1441.13 1384.19 1443.3 1376.95 C 1452.78 1371.04 1464.64 1364.81 1473.64 1358.44 C 1498.84 1340.59 1531.06 1314.83 1549.65 1290.47 z"/>
<path transform="translate(0,0)" fill="rgb(250,95,2)" d="M 496.211 1291.28 C 499.01 1291.33 503.868 1297.4 505.883 1299.69 C 526.525 1323.1 551.518 1342.87 577.366 1360.27 C 586.586 1366.48 596.791 1371.74 606.229 1378.01 C 607.799 1385.61 618.021 1424.5 616.993 1428.44 L 614.935 1427.27 C 573.492 1392.41 531.05 1358.67 500.848 1313.45 C 497.84 1308.95 489.855 1298.2 488.5 1293.62 L 496.211 1291.28 z"/>
<path transform="translate(0,0)" fill="rgb(4,222,212)" d="M 1408.25 1413.85 L 1408.85 1414.05 C 1410.76 1417.42 1405.76 1446.3 1404.8 1451.9 C 1383.94 1469.87 1339.32 1496.66 1315.44 1510.86 L 1314.48 1510.78 C 1313.14 1506.84 1318.38 1477.27 1319.43 1470.86 C 1353.78 1452.51 1376.31 1435.83 1408.25 1413.85 z"/>
<path transform="translate(0,0)" fill="rgb(4,222,212)" d="M 637.82 1412.54 C 640.254 1413.83 659.029 1427.75 663.393 1430.76 C 685.744 1446.2 704.4 1457.81 728.4 1470.29 C 729.298 1482.28 732.777 1499.16 734.911 1511.43 C 731.073 1509.85 718.777 1502.05 714.7 1499.64 C 690.023 1485.05 664.525 1468.94 642.144 1450.97 C 640.985 1438.13 639.543 1425.32 637.82 1412.54 z"/>
<path transform="translate(0,0)" fill="rgb(250,95,2)" d="M 1394.9 878.523 C 1426.54 863.513 1456.84 838.271 1485.68 818.35 C 1475.29 855.042 1461.34 882.585 1426.9 904.211 C 1426.65 904.33 1426.41 904.449 1426.16 904.568 C 1420.07 901.033 1402.1 884.105 1394.9 878.523 z"/>
<path transform="translate(0,0)" fill="rgb(250,95,2)" d="M 561.631 818.142 C 587.307 837.342 623.431 864.268 651.646 878.707 C 644.572 885.766 628.57 898.048 620.228 904.814 C 586.24 880.01 573.085 858.055 561.631 818.142 z"/>
<path transform="translate(0,0)" fill="rgb(193,169,153)" d="M 1016.53 1280.39 C 1029.09 1279.37 1055.83 1281.86 1065.15 1290.14 C 1082.33 1305.39 1039.03 1314.55 1030.63 1315.29 C 1016.83 1316.14 979.852 1311.85 976.705 1295.49 C 979.249 1283.97 1006.78 1281.21 1016.53 1280.39 z"/>
<path transform="translate(0,0)" fill="rgb(190,62,1)" d="M 1400.61 1392.02 C 1403.36 1393.15 1407.59 1400.3 1409.48 1403.1 C 1385.69 1416.98 1360.41 1435.76 1336.78 1447.93 L 1330.42 1451.04 L 1329.29 1450.4 C 1329.05 1441.18 1330.68 1427.13 1331.19 1417.18 C 1354.75 1409.39 1377.72 1401.73 1400.61 1392.02 z"/>
<path transform="translate(0,0)" fill="rgb(190,62,1)" d="M 647.1 1391.99 C 662.661 1399.74 699.066 1411.37 716.918 1417.74 C 717.053 1424.24 719.972 1446.12 717.541 1450.27 L 714.464 1448.93 C 688.095 1433.98 664.981 1418.25 638.847 1403.11 C 641.623 1399.46 644.364 1395.68 647.1 1391.99 z"/>
</svg>